HIERARCHY
ROOT Hips
{
	OFFSET 0.000000 0.000000 0.000000
	CHANNELS 6 Xposition Yposition Zposition Zrotation Yrotation Xrotation
	JOINT Spine
	{
		OFFSET 0.000000 -10.661262 -0.000008
		CHANNELS 3 Zrotation Yrotation Xrotation
		JOINT Spine1
		{
			OFFSET 0.000000 -29.093658 -0.000033
			CHANNELS 3 Zrotation Yrotation Xrotation
			JOINT Neck
			{
				OFFSET 0.000000 -31.693968 -0.000035
				CHANNELS 3 Zrotation Yrotation Xrotation
				JOINT Head
				{
					OFFSET 0.000000 -20.152393 -2.600326
					CHANNELS 3 Zrotation Yrotation Xrotation
					End Site
					{
						OFFSET 0.000000 -26.003061 -0.000029
					}
				}
			}
			JOINT LeftShoulder
			{
				OFFSET 5.236346 -25.591249 0.687322
				CHANNELS 3 Zrotation Yrotation Xrotation
				JOINT LeftArm
				{
					OFFSET 18.684721 0.000000 0.000000
					CHANNELS 3 Zrotation Yrotation Xrotation
					JOINT LeftForeArm
					{
						OFFSET 36.637775 0.000000 0.000000
						CHANNELS 3 Zrotation Yrotation Xrotation
						JOINT LeftHand
						{
							OFFSET 34.050068 0.000000 0.000000
							CHANNELS 3 Zrotation Yrotation Xrotation
							End Site
							{
								OFFSET 19.502325 0.000000 0.000000
							}
						}
					}
				}
			}
			JOINT RightShoulder
			{
				OFFSET -5.164100 -25.591249 0.687322
				CHANNELS 3 Zrotation Yrotation Xrotation
				JOINT RightArm
				{
					OFFSET -18.684721 0.000000 0.000000
					CHANNELS 3 Zrotation Yrotation Xrotation
					JOINT RightForeArm
					{
						OFFSET -36.637783 0.000000 0.000000
						CHANNELS 3 Zrotation Yrotation Xrotation
						JOINT RightHand
						{
							OFFSET -34.050068 0.000000 0.000000
							CHANNELS 3 Zrotation Yrotation Xrotation
							End Site
							{
								OFFSET -19.502316 0.000000 0.000000
							}
						}
					}
				}
			}
		}
	}
	JOINT LeftUpLeg
	{
		OFFSET 13.001543 0.000000 0.000000
		CHANNELS 3 Zrotation Yrotation Xrotation
		JOINT LeftLeg
		{
			OFFSET 0.000000 54.679955 0.000054
			CHANNELS 3 Zrotation Yrotation Xrotation
			JOINT LeftFoot
			{
				OFFSET 0.000000 57.325806 0.000057
				CHANNELS 3 Zrotation Yrotation Xrotation
				JOINT LeftToeBase
				{
					OFFSET 0.000000 8.451000 -19.502308
					CHANNELS 3 Zrotation Yrotation Xrotation
					End Site
					{
						OFFSET 0.000000 0.000000 -5.200621
					}
				}
			}
		}
	}
	JOINT RightUpLeg
	{
		OFFSET -13.001543 0.000000 0.000000
		CHANNELS 3 Zrotation Yrotation Xrotation
		JOINT RightLeg
		{
			OFFSET 0.000000 54.679955 0.000054
			CHANNELS 3 Zrotation Yrotation Xrotation
			JOINT RightFoot
			{
				OFFSET 0.000000 57.325806 0.000057
				CHANNELS 3 Zrotation Yrotation Xrotation
				JOINT RightToeBase
				{
					OFFSET 0.000000 8.451000 -19.502308
					CHANNELS 3 Zrotation Yrotation Xrotation
					End Site
					{
						OFFSET 0.000000 0.000000 -5.200621
					}
				}
			}
		}
	}
}
MOTION
Frames: 16
Frame Time: 0.041667
9.066245 -114.537506 1.055487 -0.805627 -1.121938 3.682870 1.335302 2.288408 -18.253411 -4.661805 1.457220 18.321103 -6.534548 -4.168136 9.879157 5.068213 -6.627952 5.672356 -20.666276 -3.094163 -8.225651 14.431838 10.885337 0.398141 -6.457373 8.467905 -9.503643 7.101928 1.842755 -8.911354 17.339424 10.520512 -2.288150 -9.395621 -20.223941 30.342808 112.275524 -53.836391 -68.472742 34.290896 -3.806791 4.580102 2.250413 2.114353 -6.903356 -1.343540 -1.569537 13.562134 -0.593275 -21.656274 -5.955495 0.000000 -0.000003 0.000000 -1.138114 -0.892286 -5.828024 -1.675868 1.139815 12.774059 -3.598823 20.872046 -13.050458 -0.000001 -0.000005 -0.000003 
9.105329 -114.544319 1.077017 -0.830384 -1.123615 3.756902 1.337655 2.285898 -18.224029 -4.643953 1.449870 18.236685 -6.522727 -4.191039 9.841461 5.068485 -6.646177 5.659313 -20.643325 -3.113654 -8.202436 14.437649 10.920465 0.277943 -6.428347 8.473012 -9.448483 7.111111 1.837717 -8.858206 17.364033 10.486284 -2.280068 -9.432828 -20.147508 30.397842 112.383352 -53.746263 -68.535792 34.294448 -3.732374 4.544569 2.270312 2.125881 -7.488146 -1.226127 -1.284411 14.545363 -0.539383 -21.961906 -6.288035 0.000002 -0.000002 0.000000 -1.043535 -0.901428 -5.921394 -1.770669 1.139383 12.797186 -3.582243 20.888974 -13.057662 0.000002 -0.000010 0.000003 
9.150334 -114.553246 1.104406 -0.855927 -1.141297 3.832006 1.338975 2.293186 -18.171643 -4.625986 1.445079 18.130025 -6.491281 -4.214167 9.780259 5.044118 -6.656426 5.674807 -20.628647 -3.123834 -8.181903 14.461759 10.920980 0.263724 -6.431650 8.496696 -9.464268 7.096896 1.831934 -8.873001 17.375375 10.491994 -2.285950 -9.448196 -20.119010 30.437782 112.469453 -53.684481 -68.567552 34.258617 -3.698333 4.540630 2.298420 2.106900 -8.134326 -1.130311 -1.050796 15.653766 -0.662887 -22.122482 -6.700497 -0.000001 0.000000 0.000003 -0.943917 -0.911509 -6.018725 -1.864386 1.183475 12.813163 -3.583878 20.893859 -13.053601 0.000002 -0.000010 0.000000 
9.204360 -114.562706 1.134330 -0.882799 -1.188849 3.903924 1.313715 2.314093 -18.112845 -4.565864 1.439462 18.023462 -6.473699 -4.232456 9.727248 5.033597 -6.665561 5.653402 -20.631387 -3.141726 -8.138932 14.486186 10.946069 0.225381 -6.435145 8.499250 -9.477645 7.119863 1.791608 -8.888097 17.373612 10.497348 -2.259137 -9.437785 -20.104035 30.315982 112.503823 -53.614188 -69.243222 32.821456 -6.706885 2.979370 2.317799 2.192772 -8.839034 -0.961730 -0.694492 16.893522 -0.543869 -22.527137 -7.355240 -0.000000 -0.000003 -0.000002 -0.836141 -0.920199 -6.114547 -1.877987 1.605629 12.822038 -3.549017 20.543307 -13.005680 -0.000001 -0.000004 0.000002 
9.261490 -114.572403 1.163650 -0.897200 -1.248171 3.979013 1.286923 2.324035 -18.063243 -4.521044 1.433609 17.934566 -6.460330 -4.226344 9.656991 5.036073 -6.652486 5.635666 -20.622105 -3.117177 -8.100440 14.496040 10.953406 0.181689 -6.458705 8.498469 -9.471919 7.150448 1.830536 -8.877746 17.371521 10.489525 -2.297108 -9.426319 -20.036806 30.278850 112.742374 -53.761665 -68.823882 34.353758 -3.583169 4.693460 2.362573 2.203341 -9.564846 -0.847698 -0.431397 18.227982 -0.477963 -22.720667 -8.093473 -0.000000 -0.000001 -0.000002 -0.738797 -0.930568 -6.216785 -1.976738 1.659358 12.856247 -3.577320 20.571036 -13.012080 0.000000 -0.000004 -0.000002 
9.333549 -114.585045 1.198421 -0.900167 -1.335894 4.050783 1.236310 2.339834 -17.992614 -4.469310 1.429281 17.827806 -6.441617 -4.219329 9.577880 5.030911 -6.635462 5.617095 -20.615516 -3.114551 -8.056854 14.508980 11.016377 0.055948 -6.448431 8.465501 -9.467948 7.170494 1.808365 -8.877470 17.392276 10.502462 -2.246510 -9.421124 -19.953178 30.276791 112.830067 -53.649118 -68.769241 34.367367 -3.561032 4.711575 2.338178 2.467882 -10.293842 -0.666038 -0.399411 19.447811 -0.497462 -22.880797 -8.672567 0.000000 -0.000001 -0.000001 -0.653038 -0.939481 -6.306896 -2.099444 1.560830 12.882205 -3.586534 20.772574 -13.007985 0.000001 -0.000006 0.000004 
9.408397 -114.597336 1.222144 -0.902704 -1.444406 4.128227 1.199140 2.376783 -17.960133 -4.453652 1.438677 17.763509 -6.401468 -4.216636 9.499438 5.037593 -6.618442 5.565484 -20.595297 -3.095835 -8.016611 14.539711 11.043434 0.002793 -6.478862 8.454890 -9.489394 7.194020 1.853329 -8.894080 17.416103 10.515016 -2.236827 -9.381913 -19.865520 30.223679 112.899994 -53.481655 -69.519673 32.841588 -6.672248 2.967048 2.298086 2.722419 -10.973817 -0.383079 -0.280783 20.533401 -0.867370 -23.135183 -9.071272 0.000000 -0.000003 -0.000004 -0.586618 -0.948785 -6.393108 -2.083209 1.922083 12.876355 -3.597897 20.540821 -12.961344 0.000001 -0.000001 -0.000002 
9.692471 -114.811333 0.823246 -0.077721 -2.674143 3.017289 -0.375832 3.069772 -17.309690 -3.606391 1.634880 18.214801 -6.396063 -4.200097 9.391975 5.022006 -6.590314 5.526219 -20.603940 -3.051212 -8.023363 14.554802 11.018014 0.049388 -6.505418 8.465448 -9.542053 7.215535 1.828319 -8.945378 17.380513 10.514977 -2.265738 -9.310664 -19.758651 30.106897 113.053045 -53.517712 -69.678209 32.842155 -6.692075 3.006159 1.639190 4.182306 -10.235550 -0.422654 -0.583717 21.362556 -1.078911 -23.120696 -9.444024 0.000001 -0.000002 -0.000003 -1.151745 -0.676637 -4.591894 -2.455714 2.472877 12.024318 -3.707302 21.022455 -12.078848 -0.000000 -0.000005 0.000009 
9.774594 -114.805283 0.865221 -0.137586 -2.712966 3.120204 -0.330595 3.034180 -17.257938 -3.600177 1.616523 18.122213 -6.397437 -4.162571 9.307484 5.057417 -6.549972 5.445589 -20.619311 -3.009600 -8.021671 14.605294 11.033603 0.051287 -6.547496 8.446514 -9.579965 7.225478 1.820336 -8.981588 17.402383 10.549798 -2.155698 -9.279324 -19.671037 30.011346 113.158237 -53.401503 -69.712271 32.818390 -6.612029 2.967895 1.498853 4.638521 -10.889435 0.185849 -0.699377 22.318784 -0.984690 -23.638841 -10.006746 -0.000001 0.000004 0.000001 -1.040976 -0.699748 -4.774657 -2.471758 2.491986 12.153947 -3.748245 21.064085 -12.158675 -0.000004 -0.000010 -0.000001 
9.863414 -114.808960 0.883747 -0.186974 -2.752147 3.178515 -0.289937 3.007000 -17.193840 -3.596229 1.602278 18.054664 -6.410666 -4.126771 9.243305 5.098546 -6.515528 5.358629 -20.649007 -2.974111 -7.991573 14.656167 11.051813 -0.085108 -6.523504 8.444092 -9.557284 7.162437 1.844958 -8.960287 17.397105 10.534335 -2.139891 -9.230233 -19.545833 29.786906 113.331519 -53.500380 -69.927197 32.819605 -6.664096 3.038410 1.506906 4.859578 -11.382419 0.514897 -0.766472 22.992896 -0.462631 -23.795402 -10.640002 0.000001 0.000005 -0.000002 -0.930162 -0.712517 -4.892305 -2.592552 2.135524 12.280478 -3.813651 21.488953 -12.262421 -0.000001 -0.000004 -0.000006 
9.957933 -114.800728 0.911665 -0.264322 -2.729480 3.274372 -0.205657 2.943734 -17.164200 -3.614416 1.577891 18.000993 -6.418559 -4.107907 9.161377 5.132493 -6.495030 5.271759 -20.635806 -2.935876 -7.984525 14.654494 11.042255 -0.082774 -6.522657 8.455008 -9.594827 7.147563 1.840444 -8.997774 17.393816 10.558464 -2.109882 -9.185358 -19.503074 29.579582 113.437093 -53.567353 -70.079380 32.845963 -6.710410 3.062756 1.551925 5.012218 -11.802523 0.845264 -0.799245 23.481912 -0.067747 -23.501247 -11.289074 0.000001 -0.000008 0.000007 -0.794150 -0.733533 -5.066108 -2.604379 2.188311 12.402670 -3.854327 21.460707 -12.343694 0.000001 -0.000004 0.000002 
10.062665 -114.795372 0.910807 -0.370308 -2.674676 3.324885 -0.075651 2.852940 -17.119715 -3.656978 1.546642 17.975024 -6.422976 -4.080360 9.107331 5.165458 -6.463914 5.149013 -20.637989 -2.899058 -7.983735 14.697175 11.067957 -0.157625 -6.524918 8.431981 -9.551994 7.144871 1.821249 -8.957352 17.391817 10.552544 -2.098959 -9.115296 -19.414275 29.292304 113.585827 -53.725421 -70.334904 32.762143 -6.762473 3.143813 1.655722 5.052592 -12.136338 1.101112 -0.886805 23.709289 -0.045783 -22.757704 -11.570049 -0.000000 -0.000005 0.000001 -0.622145 -0.743496 -5.188861 -2.646190 2.101749 12.547953 -3.875839 21.519249 -12.449523 -0.000003 -0.000010 -0.000002 
10.181675 -114.789474 0.902031 -0.471001 -2.561651 3.356162 0.034236 2.729555 -17.073081 -3.674907 1.502517 17.972301 -6.451269 -4.056418 9.056833 5.225810 -6.446755 5.031013 -20.643654 -2.900367 -7.977139 14.734596 11.100250 -0.206782 -6.519120 8.432068 -9.537968 7.182470 1.852193 -8.941199 17.394943 10.561432 -2.085114 -9.099219 -19.372594 29.114258 113.657565 -53.786900 -70.455607 32.779635 -6.748264 3.175866 1.779621 5.025560 -12.356710 1.454926 -0.668269 23.747086 0.305054 -22.138158 -11.955946 0.000002 -0.000007 -0.000001 -0.474513 -0.753154 -5.299729 -2.627213 2.063629 12.693907 -3.909645 21.489920 -12.544544 0.000001 0.000002 0.000001 
10.295507 -114.788116 0.867706 -0.527285 -2.481668 3.375104 0.085969 2.623729 -17.052028 -3.659676 1.462381 17.983405 -6.494615 -4.036956 9.034729 5.257826 -6.434013 4.917962 -20.646864 -2.864609 -7.958683 14.749512 11.087248 -0.151664 -6.539299 8.455405 -9.554543 7.171163 1.878336 -8.953465 17.354826 10.537998 -2.060692 -9.059419 -19.326345 28.961672 113.699570 -53.828099 -70.546852 32.778744 -6.820417 3.157205 1.910049 4.994171 -12.498766 1.804532 -0.173815 23.646335 0.749037 -21.685057 -12.240532 -0.000001 -0.000006 -0.000001 -0.414865 -0.766494 -5.402621 -2.535664 2.024746 12.874212 -3.984411 21.496125 -12.624614 -0.000001 0.000001 -0.000007 
10.413987 -114.792046 0.826449 -0.614036 -2.357058 3.387371 0.228312 2.507726 -17.013388 -3.740402 1.428861 17.973621 -6.509817 -4.020209 9.026518 5.315773 -6.424162 4.823640 -20.636949 -2.850696 -7.954823 14.810785 11.084212 -0.011030 -6.575276 8.480602 -9.658040 7.132679 1.887813 -9.052900 17.377999 10.566081 -2.013214 -9.054457 -19.383413 28.867084 113.661096 -53.847528 -70.569330 32.754295 -6.746872 3.140508 2.151031 4.864830 -12.554069 2.085319 0.573622 23.386646 1.471576 -21.568465 -12.305446 0.000001 -0.000001 -0.000001 -0.309056 -0.775328 -5.500525 -2.487613 1.870756 13.066878 -4.077151 21.560532 -12.723836 -0.000000 -0.000003 -0.000001 
10.444818 -114.675354 1.038655 -1.148065 -1.573887 4.114122 1.152397 1.997139 -17.370771 -4.175403 1.267957 17.664309 -6.535060 -4.013174 9.037385 5.339107 -6.421636 4.735545 -20.619277 -2.835880 -7.930043 14.798013 11.075801 -0.043688 -6.538023 8.498232 -9.611842 7.160002 1.798019 -9.013616 17.357968 10.543521 -1.973628 -8.998684 -19.423803 28.666140 113.737580 -54.088490 -70.104884 34.222301 -3.722743 4.813550 2.779560 4.093584 -13.437147 2.323441 1.204559 23.174805 1.828213 -21.594150 -12.024427 -0.000001 -0.000001 0.000000 0.122196 -0.952155 -6.696336 -2.212848 1.449240 13.679801 -4.160763 21.355961 -13.298362 0.000002 0.000003 0.000002 
